<mxfile host="app.diagrams.net" modified="2024-03-28T18:08:15.320Z" agent="Mozilla/5.0 (Windows NT 10.0; Win64; x64) AppleWebKit/537.36 (KHTML, like Gecko) Chrome/123.0.0.0 Safari/537.36" etag="ZDvLAFgqoN-WUpDH8qca" version="24.0.7" type="device">
  <diagram name="Page-1" id="I472ZiJRrRENwhmg1cIs">
    <mxGraphModel dx="1434" dy="780" grid="1" gridSize="10" guides="1" tooltips="1" connect="1" arrows="1" fold="1" page="1" pageScale="1" pageWidth="827" pageHeight="1169" math="0" shadow="0">
      <root>
        <mxCell id="0" />
        <mxCell id="1" parent="0" />
        <mxCell id="HvsCVOa9bFfB01quS9L3-28" value="" style="endArrow=none;dashed=1;html=1;rounded=0;strokeWidth=3;strokeColor=#A3A3A3;" edge="1" parent="1">
          <mxGeometry width="50" height="50" relative="1" as="geometry">
            <mxPoint x="260" y="420" as="sourcePoint" />
            <mxPoint x="260" y="10" as="targetPoint" />
          </mxGeometry>
        </mxCell>
        <mxCell id="HvsCVOa9bFfB01quS9L3-2" value="" style="sketch=0;pointerEvents=1;shadow=0;dashed=0;html=1;strokeColor=none;fillColor=#505050;labelPosition=center;verticalLabelPosition=bottom;verticalAlign=top;outlineConnect=0;align=center;shape=mxgraph.office.devices.laptop;" vertex="1" parent="1">
          <mxGeometry x="40" y="80" width="80" height="50" as="geometry" />
        </mxCell>
        <mxCell id="HvsCVOa9bFfB01quS9L3-10" style="edgeStyle=orthogonalEdgeStyle;rounded=0;orthogonalLoop=1;jettySize=auto;html=1;entryX=1;entryY=0.5;entryDx=0;entryDy=0;startArrow=classic;startFill=1;endArrow=none;endFill=0;" edge="1" parent="1" source="HvsCVOa9bFfB01quS9L3-3" target="HvsCVOa9bFfB01quS9L3-9">
          <mxGeometry relative="1" as="geometry">
            <Array as="points">
              <mxPoint x="520" y="350" />
            </Array>
          </mxGeometry>
        </mxCell>
        <mxCell id="HvsCVOa9bFfB01quS9L3-11" value="Cloner un projet du serveur Git" style="edgeLabel;html=1;align=center;verticalAlign=middle;resizable=0;points=[];" vertex="1" connectable="0" parent="HvsCVOa9bFfB01quS9L3-10">
          <mxGeometry x="0.3572" relative="1" as="geometry">
            <mxPoint x="51" y="-40" as="offset" />
          </mxGeometry>
        </mxCell>
        <mxCell id="HvsCVOa9bFfB01quS9L3-20" style="edgeStyle=orthogonalEdgeStyle;rounded=0;orthogonalLoop=1;jettySize=auto;html=1;entryX=1;entryY=1;entryDx=0;entryDy=0;" edge="1" parent="1" source="HvsCVOa9bFfB01quS9L3-3" target="HvsCVOa9bFfB01quS9L3-9">
          <mxGeometry relative="1" as="geometry">
            <mxPoint x="560" y="284.7478330522765" as="sourcePoint" />
            <mxPoint x="240" y="370" as="targetPoint" />
            <Array as="points">
              <mxPoint x="540" y="380" />
            </Array>
          </mxGeometry>
        </mxCell>
        <mxCell id="HvsCVOa9bFfB01quS9L3-21" value="Tirer les dernière modification du serveur" style="edgeLabel;html=1;align=center;verticalAlign=middle;resizable=0;points=[];" vertex="1" connectable="0" parent="HvsCVOa9bFfB01quS9L3-20">
          <mxGeometry x="0.1957" y="-2" relative="1" as="geometry">
            <mxPoint x="1" y="-8" as="offset" />
          </mxGeometry>
        </mxCell>
        <mxCell id="HvsCVOa9bFfB01quS9L3-22" style="edgeStyle=orthogonalEdgeStyle;rounded=0;orthogonalLoop=1;jettySize=auto;html=1;entryX=1;entryY=0.5;entryDx=0;entryDy=0;startArrow=classic;startFill=1;endArrow=none;endFill=0;" edge="1" parent="1" source="HvsCVOa9bFfB01quS9L3-3" target="HvsCVOa9bFfB01quS9L3-4">
          <mxGeometry relative="1" as="geometry">
            <Array as="points">
              <mxPoint x="520" y="105" />
            </Array>
          </mxGeometry>
        </mxCell>
        <mxCell id="HvsCVOa9bFfB01quS9L3-3" value="" style="sketch=0;outlineConnect=0;fontColor=#232F3E;gradientColor=none;fillColor=#232F3D;strokeColor=none;dashed=0;verticalLabelPosition=bottom;verticalAlign=top;align=center;html=1;fontSize=12;fontStyle=0;aspect=fixed;pointerEvents=1;shape=mxgraph.aws4.traditional_server;" vertex="1" parent="1">
          <mxGeometry x="480" y="160" width="69.23" height="120" as="geometry" />
        </mxCell>
        <mxCell id="HvsCVOa9bFfB01quS9L3-6" style="edgeStyle=orthogonalEdgeStyle;rounded=0;orthogonalLoop=1;jettySize=auto;html=1;exitX=1;exitY=0;exitDx=0;exitDy=0;" edge="1" parent="1" source="HvsCVOa9bFfB01quS9L3-4" target="HvsCVOa9bFfB01quS9L3-3">
          <mxGeometry relative="1" as="geometry">
            <mxPoint x="240" y="75" as="sourcePoint" />
            <mxPoint x="540" y="130.25216694772348" as="targetPoint" />
            <Array as="points">
              <mxPoint x="540" y="75" />
            </Array>
          </mxGeometry>
        </mxCell>
        <mxCell id="HvsCVOa9bFfB01quS9L3-7" value="Connecter un projet local à un serveur Git&amp;nbsp;&lt;div&gt;(Ajouter un remote)&lt;/div&gt;" style="edgeLabel;html=1;align=center;verticalAlign=middle;resizable=0;points=[];" vertex="1" connectable="0" parent="HvsCVOa9bFfB01quS9L3-6">
          <mxGeometry x="-0.3197" y="2" relative="1" as="geometry">
            <mxPoint x="32" y="-13" as="offset" />
          </mxGeometry>
        </mxCell>
        <mxCell id="HvsCVOa9bFfB01quS9L3-16" style="edgeStyle=orthogonalEdgeStyle;rounded=0;orthogonalLoop=1;jettySize=auto;html=1;exitX=1;exitY=1;exitDx=0;exitDy=0;startArrow=classic;startFill=1;endArrow=none;endFill=0;" edge="1" parent="1" source="HvsCVOa9bFfB01quS9L3-4" target="HvsCVOa9bFfB01quS9L3-3">
          <mxGeometry relative="1" as="geometry">
            <mxPoint x="260" y="170" as="sourcePoint" />
            <Array as="points">
              <mxPoint x="500" y="135" />
            </Array>
          </mxGeometry>
        </mxCell>
        <mxCell id="HvsCVOa9bFfB01quS9L3-17" value="Pousser les modifications" style="edgeLabel;html=1;align=center;verticalAlign=middle;resizable=0;points=[];" vertex="1" connectable="0" parent="HvsCVOa9bFfB01quS9L3-16">
          <mxGeometry x="-0.3068" y="-4" relative="1" as="geometry">
            <mxPoint x="64" y="-44" as="offset" />
          </mxGeometry>
        </mxCell>
        <mxCell id="HvsCVOa9bFfB01quS9L3-4" value="" style="shape=image;html=1;verticalAlign=top;verticalLabelPosition=bottom;labelBackgroundColor=#ffffff;imageAspect=0;aspect=fixed;image=https://cdn4.iconfinder.com/data/icons/essential-3/32/356-Document_Code-128.png" vertex="1" parent="1">
          <mxGeometry x="160" y="75" width="60" height="60" as="geometry" />
        </mxCell>
        <mxCell id="HvsCVOa9bFfB01quS9L3-8" value="" style="sketch=0;pointerEvents=1;shadow=0;dashed=0;html=1;strokeColor=none;fillColor=#505050;labelPosition=center;verticalLabelPosition=bottom;verticalAlign=top;outlineConnect=0;align=center;shape=mxgraph.office.devices.laptop;" vertex="1" parent="1">
          <mxGeometry x="40" y="325" width="80" height="50" as="geometry" />
        </mxCell>
        <mxCell id="HvsCVOa9bFfB01quS9L3-18" style="edgeStyle=orthogonalEdgeStyle;rounded=0;orthogonalLoop=1;jettySize=auto;html=1;exitX=1;exitY=0;exitDx=0;exitDy=0;startArrow=classic;startFill=1;endArrow=none;endFill=0;" edge="1" parent="1" source="HvsCVOa9bFfB01quS9L3-9" target="HvsCVOa9bFfB01quS9L3-3">
          <mxGeometry relative="1" as="geometry">
            <mxPoint x="270" y="335" as="sourcePoint" />
            <Array as="points">
              <mxPoint x="500" y="320" />
            </Array>
          </mxGeometry>
        </mxCell>
        <mxCell id="HvsCVOa9bFfB01quS9L3-9" value="" style="shape=image;html=1;verticalAlign=top;verticalLabelPosition=bottom;labelBackgroundColor=#ffffff;imageAspect=0;aspect=fixed;image=https://cdn4.iconfinder.com/data/icons/essential-3/32/356-Document_Code-128.png" vertex="1" parent="1">
          <mxGeometry x="160" y="320" width="60" height="60" as="geometry" />
        </mxCell>
        <mxCell id="HvsCVOa9bFfB01quS9L3-12" style="edgeStyle=orthogonalEdgeStyle;rounded=0;orthogonalLoop=1;jettySize=auto;html=1;elbow=horizontal;" edge="1" parent="1" source="HvsCVOa9bFfB01quS9L3-8" target="HvsCVOa9bFfB01quS9L3-8">
          <mxGeometry relative="1" as="geometry">
            <Array as="points">
              <mxPoint x="100" y="300" />
            </Array>
          </mxGeometry>
        </mxCell>
        <mxCell id="HvsCVOa9bFfB01quS9L3-13" value="Modifier le code et&amp;nbsp;&lt;div&gt;faire des commits&lt;/div&gt;" style="edgeLabel;html=1;align=center;verticalAlign=middle;resizable=0;points=[];" vertex="1" connectable="0" parent="HvsCVOa9bFfB01quS9L3-12">
          <mxGeometry x="-0.2222" y="7" relative="1" as="geometry">
            <mxPoint x="10" y="-13" as="offset" />
          </mxGeometry>
        </mxCell>
        <mxCell id="HvsCVOa9bFfB01quS9L3-14" style="edgeStyle=orthogonalEdgeStyle;rounded=0;orthogonalLoop=1;jettySize=auto;html=1;elbow=horizontal;" edge="1" parent="1">
          <mxGeometry relative="1" as="geometry">
            <mxPoint x="60" y="80" as="sourcePoint" />
            <mxPoint x="100" y="80" as="targetPoint" />
            <Array as="points">
              <mxPoint x="100" y="55" />
            </Array>
          </mxGeometry>
        </mxCell>
        <mxCell id="HvsCVOa9bFfB01quS9L3-15" value="Modifier le code et&amp;nbsp;&lt;div&gt;faire des commits&lt;/div&gt;" style="edgeLabel;html=1;align=center;verticalAlign=middle;resizable=0;points=[];" vertex="1" connectable="0" parent="HvsCVOa9bFfB01quS9L3-14">
          <mxGeometry x="-0.2222" y="7" relative="1" as="geometry">
            <mxPoint x="10" y="-13" as="offset" />
          </mxGeometry>
        </mxCell>
        <mxCell id="HvsCVOa9bFfB01quS9L3-19" value="Pousser les modifications" style="edgeLabel;html=1;align=center;verticalAlign=middle;resizable=0;points=[];" vertex="1" connectable="0" parent="1">
          <mxGeometry x="390" y="340" as="geometry" />
        </mxCell>
        <mxCell id="HvsCVOa9bFfB01quS9L3-23" value="Tirer les dernière modification du serveur" style="edgeLabel;html=1;align=center;verticalAlign=middle;resizable=0;points=[];" vertex="1" connectable="0" parent="1">
          <mxGeometry x="390.0021669477235" y="124" as="geometry" />
        </mxCell>
        <mxCell id="HvsCVOa9bFfB01quS9L3-26" value="" style="html=1;verticalLabelPosition=bottom;align=center;labelBackgroundColor=#ffffff;verticalAlign=top;strokeWidth=2;strokeColor=#a3a3a3;shadow=0;dashed=0;shape=mxgraph.ios7.icons.cloud;fillColor=#f5f5f5;fontColor=#333333;" vertex="1" parent="1">
          <mxGeometry x="180" y="180" width="160" height="80" as="geometry" />
        </mxCell>
        <mxCell id="HvsCVOa9bFfB01quS9L3-27" value="Internet" style="text;html=1;align=center;verticalAlign=middle;resizable=0;points=[];autosize=1;strokeColor=none;fillColor=none;fontSize=19;fontColor=#bababa;" vertex="1" parent="1">
          <mxGeometry x="215" y="210" width="90" height="40" as="geometry" />
        </mxCell>
      </root>
    </mxGraphModel>
  </diagram>
</mxfile>
